<?xml version="1.0" encoding="utf-8"?>
<!-- Generator: Adobe Illustrator 21.0.0, SVG Export Plug-In . SVG Version: 6.00 Build 0)  -->
<svg version="1.1" id="cloudy" xmlns="http://www.w3.org/2000/svg" xmlns:xlink="http://www.w3.org/1999/xlink" x="0px" y="0px"
	 viewBox="0 0 1000 1000" style="enable-background:new 0 0 1000 1000;" xml:space="preserve">
<style type="text/css">
	.st0{fill:#FFFFFF;}
</style>
<title>cloudy</title>
<g id="sun_copy">
	<path class="st0" d="M397.7,343.2c-4.4,0-8-3.6-8-8v-16.7c0-4.4,3.6-8,8-8s8,3.6,8,8v16.7C405.7,339.6,402.2,343.2,397.7,343.2z"/>
	<path class="st0" d="M462.2,364.9c-4.4,0-8-3.6-8-8c0-2.1,0.8-4.2,2.3-5.7l11.8-11.8c3.2-3,8.3-2.9,11.3,0.3c2.9,3.1,2.9,7.9,0,11
		l-11.8,11.8C466.3,364.1,464.3,364.9,462.2,364.9z"/>
	<path class="st0" d="M312.5,497c-4.4,0-8-3.6-8-8c0-2.1,0.8-4.2,2.3-5.7l11.8-11.8c3.1-3.1,8.2-3.1,11.4,0s3.1,8.2,0,11.4
		l-11.8,11.8C316.7,496.2,314.6,497,312.5,497z"/>
	<path class="st0" d="M332.2,364.9c-2.1,0-4.2-0.8-5.7-2.3l-11.8-11.8c-3-3.2-2.9-8.3,0.3-11.3c3.1-2.9,7.9-2.9,11,0l11.8,11.8
		c3.1,3.1,3.1,8.2,0,11.3C336.4,364.1,334.3,365,332.2,364.9L332.2,364.9z"/>
	<path class="st0" d="M310.7,429.9H294c-4.4,0-8-3.6-8-8s3.6-8,8-8h16.7c4.4,0,8,3.6,8,8S315.1,429.9,310.7,429.9L310.7,429.9z"/>
	<path class="st0" d="M344.4,465.3c2.9-4.7,6.3-9.2,10-13.2c-6.2-8.8-9.5-19.3-9.4-30.1c0-29,23.5-52.5,52.5-52.5
		c16.4,0,31.8,7.7,41.7,20.7c0.3,0.4,0.6,0.8,0.9,1.2c3.5-4.1,7.4-7.9,11.5-11.4c-22.9-30.1-65.9-35.9-96-13s-35.9,65.9-13,96l0,0
		C343.2,463.8,343.8,464.6,344.4,465.3z"/>
</g>
<path class="st0" d="M610,644H352c-40.6,0-73.5-32.9-73.5-73.5c0-37,27.5-68.3,64.2-72.9c6.5-36.8,38.5-63.6,75.8-63.6
	c2.9,0,5.8,0.2,8.6,0.5c16.7-53.4,73.5-83.1,126.9-66.4c49.9,15.6,79.7,66.7,68.8,117.8c43.4,7.1,72.8,48,65.7,91.3
	C682.2,615.7,649,644,610,644z M418.5,450c-31.6,0-58,24.2-60.8,55.7c-0.4,4-3.7,7.2-7.7,7.3c-31.8,0.6-57.1,26.7-56.5,58.5
	s26.7,57.1,58.5,56.5h258c35.1-0.4,63.2-29.2,62.8-64.3c-0.4-33.6-26.9-61.1-60.4-62.7c-4.4-0.1-7.9-3.8-7.8-8.2
	c0-0.8,0.2-1.5,0.4-2.2c14.3-44.9-10.5-92.8-55.4-107.1s-92.8,10.5-107.1,55.4c-0.7,2.1-1.3,4.3-1.8,6.5c-1,4.2-5.2,6.9-9.5,6
	C427,450.4,422.8,450,418.5,450z"/>
</svg>
