<?xml version="1.0" encoding="utf-8"?>
<!-- Generator: Adobe Illustrator 21.0.0, SVG Export Plug-In . SVG Version: 6.00 Build 0)  -->
<svg version="1.1" id="cloud" xmlns="http://www.w3.org/2000/svg" xmlns:xlink="http://www.w3.org/1999/xlink" x="0px" y="0px"
	 viewBox="0 0 1000 1000" style="enable-background:new 0 0 1000 1000;" xml:space="preserve">
<style type="text/css">
	.st0{fill:#FFFFFF;}
</style>
<title>cloud</title>
<path class="st0" d="M610,617.5H352c-40.6,0-73.5-32.9-73.5-73.5c0-37,27.5-68.3,64.2-72.9c6.5-36.8,38.5-63.6,75.8-63.6
	c2.9,0,5.8,0.2,8.6,0.5c16.7-53.4,73.5-83.1,126.9-66.4c49.9,15.6,79.7,66.7,68.8,117.8c43.4,7.1,72.8,48,65.7,91.3
	C682.2,589.2,649,617.5,610,617.5z M418.5,423.5c-31.6,0-58,24.2-60.8,55.7c-0.3,4-3.6,7.2-7.7,7.3c-31.8,0.6-57.1,26.7-56.5,58.5
	c0.6,31.8,26.7,57.1,58.5,56.5h258c35.1-0.4,63.2-29.2,62.8-64.3c-0.4-33.6-26.9-61.1-60.4-62.7c-4.4-0.1-7.9-3.8-7.8-8.2
	c0-0.8,0.2-1.6,0.4-2.3c14.3-44.9-10.5-92.8-55.4-107.1s-92.8,10.5-107.1,55.4c-0.7,2.1-1.3,4.3-1.8,6.5c-1,4.2-5.2,6.9-9.5,6
	C427,423.9,422.8,423.5,418.5,423.5z"/>
</svg>
