<?xml version="1.0" encoding="utf-8"?>
<!-- Generator: Adobe Illustrator 21.0.0, SVG Export Plug-In . SVG Version: 6.00 Build 0)  -->
<svg version="1.1" id="moon" xmlns="http://www.w3.org/2000/svg" xmlns:xlink="http://www.w3.org/1999/xlink" x="0px" y="0px"
	 viewBox="0 0 1000 1000" style="enable-background:new 0 0 1000 1000;" xml:space="preserve">
<style type="text/css">
	.st0{fill:#FFFFFF;}
</style>
<title>moon</title>
<path class="st0" d="M463.9,626.2c-95.8,0-173.6-77.9-173.6-173.6c-0.1-37.6,12.1-74.3,34.8-104.3c22.2-29.4,53-51,88.2-61.8
	c4.2-1.3,8.7,1.1,10,5.3c0.7,2.3,0.3,4.8-1.1,6.8c-17.9,26.1-27.4,57.1-27.4,88.8c0,86.9,70.7,157.7,157.7,157.7
	c15.6,0,31.1-2.3,46-6.8c4.2-1.3,8.7,1.1,10,5.3c0.7,2.3,0.3,4.8-1,6.8C575,597.8,521.3,626.2,463.9,626.2z M397.1,309.8
	c-23.4,11-43.7,27.5-59.2,48.1c-20.6,27.3-31.7,60.5-31.6,94.7c0,86.9,70.7,157.6,157.6,157.6c44.4,0,86.6-18.7,116.5-51.5
	c-9.2,1.5-18.6,2.2-27.9,2.3c-95.8,0-173.6-77.9-173.6-173.6C378.8,360.4,385,333.8,397.1,309.8z"/>
</svg>
