<?xml version="1.0" encoding="utf-8"?>
<!-- Generator: Adobe Illustrator 21.0.0, SVG Export Plug-In . SVG Version: 6.00 Build 0)  -->
<svg version="1.1" id="rain" xmlns="http://www.w3.org/2000/svg" xmlns:xlink="http://www.w3.org/1999/xlink" x="0px" y="0px"
	 viewBox="0 0 1000 1000" style="enable-background:new 0 0 1000 1000;" xml:space="preserve">
<style type="text/css">
	.st0{fill:#FFFFFF;}
</style>
<title>rain</title>
<path class="st0" d="M626,607.4h-15c-4.4,0-8-3.6-8-8s3.6-8,8-8h15c35.1-0.4,63.2-29.2,62.8-64.3c-0.4-33.6-26.9-61.1-60.4-62.7
	c-4.4-0.1-7.9-3.8-7.7-8.3c0-0.7,0.2-1.5,0.4-2.2c14.3-44.9-10.5-92.8-55.4-107.1c-44.9-14.3-92.8,10.5-107.1,55.4
	c-0.7,2.1-1.3,4.3-1.8,6.5c-1,4.2-5.2,6.9-9.5,6c-32.9-7-65.4,14-72.4,46.9c-0.5,2.5-0.9,5-1.1,7.5c-0.3,4-3.6,7.2-7.7,7.3
	c-31.8,0.6-57.1,26.7-56.5,58.5c0.6,31.8,26.7,57.1,58.5,56.5c4.4,0,8,3.6,8,8s-3.6,8-8,8c-40.6,0.1-73.6-32.7-73.7-73.3
	c-0.1-37.1,27.5-68.5,64.4-73.1c6.5-36.8,38.5-63.6,75.8-63.6c2.9,0,5.8,0.2,8.6,0.5c16.7-53.4,73.5-83.1,126.9-66.4
	c49.9,15.6,79.7,66.7,68.8,117.8c43.3,7.1,72.7,48.1,65.5,91.4C698,579.1,664.9,607.3,626,607.4z"/>
<g id="Layer_9_copy">
	<path class="st0" d="M428.5,609.1c-4.4,0-8-3.6-8-8c0-0.8,0.1-1.7,0.4-2.5l4.9-15.2c1.4-4.2,5.9-6.5,10.1-5.1
		c4.2,1.4,6.5,5.9,5.1,10.1l-4.9,15.2C435.1,606.9,432,609.1,428.5,609.1z"/>
	<path class="st0" d="M408.5,673.1c-4.4,0-8-3.6-8-8c0-0.8,0.1-1.7,0.4-2.5l4.9-15.2c1.4-4.2,5.9-6.5,10.1-5.1
		c4.2,1.4,6.5,5.9,5.1,10.1l-4.9,15.2C415.1,670.9,412,673.1,408.5,673.1z"/>
	<path class="st0" d="M510.5,545.1c-4.4,0-8-3.6-8-8c0-0.8,0.1-1.7,0.4-2.5l4.9-15.2c1.4-4.2,5.9-6.5,10.1-5.1s6.5,5.9,5.1,10.1
		l-4.9,15.2C517.1,542.9,514,545.1,510.5,545.1z"/>
	<path class="st0" d="M490.5,609.1c-4.4,0-8-3.6-8-8c0-0.8,0.1-1.7,0.4-2.5l4.9-15.2c1.4-4.2,5.9-6.5,10.1-5.1
		c4.2,1.4,6.5,5.9,5.1,10.1l-4.9,15.2C497.1,606.9,494,609.1,490.5,609.1z"/>
	<path class="st0" d="M470.5,673.1c-4.4,0-8-3.6-8-8c0-0.8,0.1-1.7,0.4-2.5l4.9-15.2c1.4-4.2,5.9-6.5,10.1-5.1
		c4.2,1.4,6.5,5.9,5.1,10.1l-4.9,15.2C477.1,670.9,474,673.1,470.5,673.1z"/>
	<path class="st0" d="M572.5,545.1c-4.4,0-8-3.6-8-8c0-0.8,0.1-1.7,0.4-2.5l4.9-15.2c1.4-4.2,5.9-6.5,10.1-5.1
		c4.2,1.4,6.5,5.9,5.1,10.1l-4.9,15.2C579.1,542.9,576,545.1,572.5,545.1z"/>
	<path class="st0" d="M552.5,609.1c-4.4,0-8-3.6-8-8c0-0.8,0.1-1.7,0.4-2.5l4.9-15.2c1.4-4.2,5.9-6.5,10.1-5.1
		c4.2,1.4,6.5,5.9,5.1,10.1l-4.9,15.2C559.1,606.9,556,609.1,552.5,609.1z"/>
	<path class="st0" d="M532.5,673.1c-4.4,0-8-3.6-8-8c0-0.8,0.1-1.7,0.4-2.5l4.9-15.2c1.4-4.2,5.9-6.5,10.1-5.1
		c4.2,1.4,6.5,5.9,5.1,10.1l-4.9,15.2C539.1,670.9,536,673.1,532.5,673.1z"/>
</g>
</svg>
