<?xml version="1.0" encoding="utf-8"?>
<!-- Generator: Adobe Illustrator 21.0.0, SVG Export Plug-In . SVG Version: 6.00 Build 0)  -->
<svg version="1.1" id="snowing" xmlns="http://www.w3.org/2000/svg" xmlns:xlink="http://www.w3.org/1999/xlink" x="0px" y="0px"
	 viewBox="0 0 1000 1000" style="enable-background:new 0 0 1000 1000;" xml:space="preserve">
<style type="text/css">
	.st0{fill:#FFFFFF;}
</style>
<title>snowing</title>
<path class="st0" d="M626,611.6h-15c-4.4,0-8-3.6-8-8s3.6-8,8-8h15c35.1-0.4,63.2-29.2,62.8-64.3c-0.4-33.6-26.9-61.1-60.4-62.7
	c-4.4-0.1-7.9-3.8-7.7-8.3c0-0.7,0.2-1.5,0.4-2.2c14.3-44.9-10.5-92.8-55.4-107.1c-44.9-14.3-92.8,10.5-107.1,55.4
	c-0.7,2.1-1.3,4.3-1.8,6.5c-1,4.2-5.2,6.9-9.5,6c-32.9-7-65.4,14-72.4,46.9c-0.5,2.5-0.9,5-1.1,7.5c-0.3,4-3.6,7.2-7.7,7.3
	c-31.8,0.6-57.1,26.7-56.5,58.5s26.7,57.1,58.5,56.5c4.4,0,8,3.6,8,8s-3.6,8-8,8c-40.6,0-73.5-32.9-73.5-73.5
	c0-37,27.5-68.3,64.2-72.9c6.5-36.8,38.5-63.6,75.8-63.6c2.9,0,5.8,0.2,8.6,0.5c16.7-53.4,73.5-83.1,126.9-66.4
	c49.9,15.6,79.7,66.7,68.8,117.8c43.4,7.1,72.8,48,65.7,91.3C698.2,583.3,665,611.6,626,611.6z"/>
<g id="Layer_9_copy_2">
	<circle class="st0" cx="400.2" cy="653.7" r="7.2"/>
	<circle class="st0" cx="465.2" cy="653.7" r="7.2"/>
	<circle class="st0" cx="418.2" cy="553.7" r="7.2"/>
	<circle class="st0" cx="483.2" cy="553.7" r="7.2"/>
	<circle class="st0" cx="548.2" cy="553.7" r="7.2"/>
	<circle class="st0" cx="436.2" cy="603.7" r="7.2"/>
	<circle class="st0" cx="501.2" cy="603.7" r="7.2"/>
	<circle class="st0" cx="566.2" cy="603.7" r="7.2"/>
</g>
</svg>
