<?xml version="1.0" encoding="utf-8"?>
<!-- Generator: Adobe Illustrator 21.0.0, SVG Export Plug-In . SVG Version: 6.00 Build 0)  -->
<svg version="1.1" id="storm" xmlns="http://www.w3.org/2000/svg" xmlns:xlink="http://www.w3.org/1999/xlink" x="0px" y="0px"
	 viewBox="0 0 1000 1000" style="enable-background:new 0 0 1000 1000;" xml:space="preserve">
<style type="text/css">
	.st0{fill:#FFFFFF;}
</style>
<title>storn</title>
<path class="st0" d="M352,591c-40.6,0-73.5-32.9-73.5-73.5c0-37,27.5-68.3,64.2-72.9c6.5-36.8,38.5-63.6,75.8-63.6
	c2.9,0,5.8,0.2,8.6,0.5c16.6-53.4,73.4-83.2,126.8-66.6c50.1,15.6,79.9,66.8,68.9,118.1c38.5,6.3,66.7,39.5,66.7,78.5
	c0,4.4-3.6,8-8,8s-8-3.6-8-8c0.1-34.2-26.9-62.3-61.1-63.5c-4.4-0.1-7.9-3.8-7.7-8.3c0-0.7,0.1-1.5,0.4-2.1
	c14.3-44.9-10.5-92.8-55.4-107.1s-92.8,10.5-107.1,55.4c-0.7,2.1-1.3,4.3-1.8,6.5c-1,4.2-5.2,6.9-9.5,6c-32.9-7-65.4,14-72.4,46.9
	c-0.5,2.5-0.9,5-1.1,7.5c-0.3,4-3.6,7.2-7.7,7.3c-31.8,0.6-57.1,26.7-56.5,58.5s26.7,57.1,58.5,56.5c4.4,0,8,3.6,8,8
	S356.4,591.1,352,591L352,591z"/>
<g id="Layer_9_copy_3">
	<path class="st0" d="M391.8,644c-4.4,0-8-3.6-8-8c0-2.1,0.8-4.2,2.3-5.7l46.5-46.5h-35.8c-4.4,0-8-3.6-8-8c0-2.1,0.8-4.2,2.3-5.7
		l55.2-55.2c3-3.2,8.1-3.3,11.3-0.3c3.2,3,3.3,8.1,0.3,11.3c-0.1,0.1-0.2,0.2-0.3,0.3l-41.5,41.5h35.8c4.4,0,8,3.6,8,8
		c0,2.1-0.8,4.2-2.3,5.7l-60.1,60.1C396,643.1,393.9,644,391.8,644z"/>
	<path class="st0" d="M510.2,577.2c-4.4,0-8-3.6-8-8c0-2.1,0.8-4.2,2.3-5.7l46.4-46.5h-35.8c-4.4,0-8-3.6-8-8c0-2.1,0.8-4.2,2.3-5.7
		l55.1-55.1c3.1-3.1,8.2-3.1,11.3,0s3.1,8.2,0,11.3l-41.5,41.5h35.8c4.4,0,8,3.6,8,8c0,2.1-0.8,4.1-2.3,5.6l-60.1,60.1
		C514.4,576.4,512.3,577.2,510.2,577.2z"/>
</g>
</svg>
