<?xml version="1.0" encoding="utf-8"?>
<!-- Generator: Adobe Illustrator 21.0.0, SVG Export Plug-In . SVG Version: 6.00 Build 0)  -->
<svg version="1.1" id="sun" xmlns="http://www.w3.org/2000/svg" xmlns:xlink="http://www.w3.org/1999/xlink" x="0px" y="0px"
	 viewBox="0 0 1000 1000" style="enable-background:new 0 0 1000 1000;" xml:space="preserve">
<style type="text/css">
	.st0{fill:#FFFFFF;}
</style>
<title>sun</title>
<path class="st0" d="M484,624.8c-76.8,0-139.3-62.5-139.3-139.3S407.2,346.2,484,346.2s139.3,62.5,139.3,139.3
	S560.8,624.8,484,624.8z M484,362.2c-68.1,0-123.3,55.2-123.3,123.3S416,608.8,484.1,608.8c68.1,0,123.3-55.2,123.3-123.3
	C607.2,417.4,552.1,362.3,484,362.2z"/>
<path class="st0" d="M484.7,332.5c-4.4,0-8-3.6-8-8v-36.2c0-4.4,3.6-8,8-8s8,3.6,8,8v36.2C492.7,328.9,489.1,332.5,484.7,332.5z"/>
<path class="st0" d="M597.2,379.7c-4.4,0-8-3.5-8-8c0-2.2,0.8-4.2,2.4-5.7l25.6-25.6c3-3.2,8.1-3.3,11.3-0.3c3.2,3,3.3,8.1,0.3,11.3
	c-0.1,0.1-0.2,0.2-0.3,0.3l-25.6,25.6C601.4,378.8,599.3,379.7,597.2,379.7z"/>
<path class="st0" d="M369.8,379.7c-2.1,0-4.2-0.8-5.7-2.3l-25.6-25.6c-3-3.2-2.9-8.3,0.3-11.3c3.1-2.9,7.9-2.9,11,0l25.6,25.6
	c3.1,3.1,3.1,8.2,0,11.3C373.9,378.9,371.9,379.7,369.8,379.7L369.8,379.7z"/>
<path class="st0" d="M681.1,493.4h-36.2c-4.4,0-8-3.6-8-8s3.6-8,8-8h36.2c4.4,0,8,3.6,8,8S685.5,493.4,681.1,493.4z"/>
<path class="st0" d="M484.8,690.9c-4.4,0-8-3.6-8-8v-36.2c0-4.4,3.6-8,8-8s8,3.6,8,8v36.2C492.8,687.3,489.2,690.9,484.8,690.9z"/>
<path class="st0" d="M623.8,633.1c-2.1,0-4.2-0.8-5.7-2.3l-25.6-25.6c-3-3.2-2.9-8.3,0.3-11.3c3.1-2.9,7.9-2.9,11,0l25.6,25.6
	c3.1,3.1,3.1,8.2,0,11.3C627.9,632.3,625.9,633.1,623.8,633.1L623.8,633.1z"/>
<path class="st0" d="M344.8,633.1c-4.4,0-8-3.6-8-8c0-2.1,0.8-4.2,2.3-5.7l25.6-25.6c3-3.2,8.1-3.3,11.3-0.3c3.2,3,3.3,8.1,0.3,11.3
	c-0.1,0.1-0.2,0.2-0.3,0.3l-25.6,25.6C348.9,632.3,346.9,633.1,344.8,633.1z"/>
<path class="st0" d="M323.1,493.4h-36.2c-4.4,0-8-3.6-8-8s3.6-8,8-8h36.2c4.4,0,8,3.6,8,8S327.5,493.4,323.1,493.4z"/>
</svg>
